<svg xmlns="http://www.w3.org/2000/svg" xml:space="preserve" width="2000" height="560" data-id="lg_QOcqsp7NcOQZFZQqFV" data-version="1" viewBox="0 0 2000 560"><g data-padding="20"><g transform="translate(10 11.336)scale(.95951)"><path fill="#f1ede6" d="M1279.002 560.04h-494.4s110.622-494.4 247.2-494.4 247.2 494.4 247.2 494.4" opacity=".6"/><path fill="#efdddd" d="M784.542-.04h494.4s-110.622 494.4-247.2 494.4-247.2-494.4-247.2-494.4" opacity=".6"/><rect width="249.228" height="388.72" x="659.968" y="-194.36" fill="none" rx="0" ry="0" transform="translate(247.2 310.38)"/><path fill="#ae5353" d="M1039.192 176.8q28.21 0 52.8 3.61 24.6 3.61 35.26 7.4l10.32 3.78v98.39q-27.86-12.73-76.37-12.73v8.94q44.72 3.44 64.33 17.89t19.61 43.69q0 35.09-28.55 54.35t-88.07 19.26q-34.05 0-60.2-3.95-26.14-3.96-35.08-7.74l-9.29-4.13V319.9q3.09 1.38 9.29 3.79 6.19 2.41 27.69 6.19t46.27 3.78v-8.25q-41.97-3.1-63.3-17.89t-21.33-51.6 29.24-57.96q29.24-21.16 87.38-21.16"/></g><path fill="transparent" stroke="transparent" d="M753 0h494v560H753z"/></g></svg>